<svg width="344" height="464" viewBox="0 0 344 464" fill="none" xmlns="http://www.w3.org/2000/svg">
  <path d="M220.503 244.82C219.083 246.213 217.663 247.619 216.146 249.043C216.128 249.059 216.096 249.092 216.079 249.108C215.883 249.288 215.688 249.468 215.492 249.665C206.58 258.208 196.264 267.112 187.415 271.58H187.4C187.221 271.662 187.043 271.76 186.862 271.858C186.47 272.038 186.078 272.218 185.703 272.398C184.234 273.069 182.814 273.56 181.443 273.92C180.251 274.215 179.109 274.41 178.015 274.444C174.161 274.575 172.024 274.624 170.866 274.624H170.555C169.397 274.624 167.275 274.575 163.406 274.444C161.939 274.379 160.386 274.068 158.738 273.56C158.459 273.478 158.199 273.38 157.922 273.266H157.905C157.187 273.004 156.436 272.709 155.686 272.382C148.83 269.338 140.897 263.249 133.372 256.57C131.691 255.082 130.026 253.56 128.378 252.038C127.66 251.334 126.941 250.663 126.223 249.976C125.44 249.239 124.672 248.503 123.922 247.766C124.134 271.891 121.62 301.497 117.001 314.101C113.279 324.216 108.252 330.451 101.329 334.674C94.4592 338.882 85.7119 341.106 74.5619 343.232C74.0232 343.332 73.4683 343.448 72.915 343.545C68.8 344.298 64.3602 345.051 59.5777 345.903C27.6343 351.548 0 368.473 0 368.473C0 368.473 10.724 385.935 32.0741 405.886C45.5076 418.44 63.1524 431.977 84.9757 442.777C108.89 454.61 137.812 463.137 171.713 463.466C285.679 462.401 343.429 368.473 343.429 368.473C343.429 368.473 315.794 351.548 283.851 345.903C279.02 345.051 274.645 344.332 270.695 343.61C248.545 339.617 239.194 335.934 230.837 311.155C223.931 290.746 221.449 264.902 221.89 243.429C221.433 243.887 220.978 244.362 220.503 244.82Z" fill="url(#paint0_linear)"/>
  <path d="M122.503 282.906C121.333 295.862 119.467 307.394 117.006 314.106C113.284 324.222 108.257 330.458 101.334 334.681C94.4641 338.885 85.7152 341.113 74.5668 343.24C74.0282 343.339 73.4732 343.452 72.9182 343.551C68.8033 344.303 64.3652 345.057 59.581 345.908C27.6392 351.553 0.00492859 368.477 0.00492859 368.477C0.00492859 368.477 10.7289 385.942 32.0773 405.891C45.5125 418.446 63.1573 431.98 84.9807 442.784C108.893 454.617 137.817 463.144 171.719 463.47C285.684 462.408 343.434 368.477 343.434 368.477C343.434 368.477 315.799 351.553 283.854 345.908C279.023 345.057 274.65 344.335 270.7 343.617C248.55 339.622 239.195 335.939 230.84 311.16C227.903 302.476 227.827 293.43 227.584 282.906H122.503Z" fill="url(#paint1_linear)"/>
  <path d="M247.636 132.336C246.851 153.598 245.661 175.579 243.931 186.773C250.67 185.333 269.231 179.114 269.867 153.942C270.365 134.863 261.422 131.21 254.549 131.21C251.508 131.21 248.872 131.925 247.636 132.336Z" fill="url(#paint2_linear)"/>
  <path d="M247.686 130.96C246.886 152.957 245.662 176.001 243.848 187.262C243.718 188.129 243.571 188.997 243.409 189.831C243.36 190.11 243.326 190.404 243.279 190.682C242.967 192.696 242.624 194.627 242.281 196.525C242.055 197.802 241.808 199.062 241.565 200.29C238.005 218.522 233.338 231.96 222.58 242.745C221.894 243.416 221.209 244.137 220.509 244.824C219.087 246.215 217.667 247.623 216.15 249.047C216.134 249.063 216.1 249.096 216.085 249.112C215.889 249.292 215.692 249.472 215.496 249.668C206.584 258.212 196.269 267.116 187.421 271.584H187.405C187.227 271.666 187.047 271.764 186.866 271.862C186.476 272.042 186.084 272.222 185.707 272.402C184.24 273.073 182.82 273.564 181.449 273.924C180.255 274.219 179.113 274.415 178.019 274.448C174.169 274.579 172.029 274.628 170.87 274.628H170.561C169.401 274.628 167.279 274.579 163.41 274.448C161.943 274.382 160.392 274.071 158.744 273.564C158.466 273.482 158.205 273.384 157.928 273.269H157.911C157.193 273.008 156.442 272.713 155.691 272.386C148.834 269.341 140.901 263.253 133.378 256.575C131.695 255.086 130.032 253.564 128.382 252.042C127.665 251.338 126.946 250.667 126.229 249.979C124.205 248.065 122.245 246.15 120.416 244.3C119.861 243.776 119.357 243.253 118.849 242.745C108.225 232.058 103.524 218.817 99.9821 200.879C99.7357 199.553 99.4745 198.211 99.2313 196.836C99.1823 196.607 99.1317 196.411 99.1007 196.182C98.7236 194.087 98.3499 191.91 97.9728 189.7C97.8422 188.898 97.7296 188.08 97.5811 187.262C95.7709 176.034 94.5614 153.104 93.7958 131.173C93.7958 131.173 93.3225 125.608 93.3225 117.424C93.3225 106.557 94.1533 91.1065 97.9418 78.0131C104.583 55.034 122.687 50.8768 135.58 54.4939C148.491 58.0946 165.581 73.0539 188.271 59.5512C210.96 46.0159 227.103 45.3776 236.668 66.1144C246.248 86.8675 247.686 130.96 247.686 130.96Z" fill="#EABDB8"/>
  <path d="M203.126 139.629C194.871 142.393 193.343 146.86 189.961 154.901L226.051 147.418C222.44 140.752 216.84 138.262 211.008 138.262C208.373 138.262 205.693 138.77 203.126 139.629Z" fill="url(#paint3_linear)"/>
  <path d="M189.962 155.491C189.962 155.491 200.245 127.379 224.63 149.044C224.63 149.044 214.625 160.353 189.962 155.491Z" fill="white"/>
  <path d="M200.543 148.423C200.274 152.05 203.021 155.237 206.677 155.541C210.333 155.844 213.515 153.148 213.782 149.521C214.052 145.894 211.306 142.708 207.65 142.405C203.994 142.101 200.811 144.796 200.543 148.423Z" fill="#CFD7E0"/>
  <path d="M204.935 148.644C204.874 149.854 205.824 150.891 207.055 150.964C208.287 151.034 209.332 150.112 209.391 148.903C209.453 147.693 208.503 146.656 207.272 146.585C206.04 146.513 204.993 147.436 204.935 148.644Z" fill="black"/>
  <path d="M157.468 269.341C157.468 270.699 157.626 272.023 157.927 273.272C158.207 273.383 158.472 273.477 158.736 273.57C160.391 274.073 161.94 274.39 163.403 274.446C167.278 274.577 169.408 274.632 170.554 274.632H170.87C172.031 274.632 174.163 274.577 178.021 274.446C179.112 274.408 180.258 274.221 181.454 273.924C182.812 273.57 184.239 273.066 185.7 272.397C186.088 272.228 186.473 272.041 186.862 271.856C186.986 271.035 187.056 270.197 187.056 269.341C187.056 260.694 180.434 253.688 172.263 253.688C164.09 253.688 157.468 260.694 157.468 269.341Z" fill="url(#paint4_linear)"/>
  <path d="M186.817 124.926C186.817 124.926 208.711 119.793 213.376 118.785C220.5 117.243 224.958 121.695 228.242 124.926C231.528 128.157 237.662 133.983 232.068 132.463C226.475 130.944 215.863 132.463 206.262 134.491C196.663 136.517 184.612 140.641 180.494 134.491C180.494 134.491 175.063 126.821 182.105 125.8C184.32 125.478 186.817 124.926 186.817 124.926Z" fill="#2330C4"/>
  <g opacity="0.759995">
  <g opacity="0.759995">
  <g opacity="0.759995">
  <g opacity="0.759995">
  <g opacity="0.759995">
  <path opacity="0.759995" d="M243.278 190.682C242.968 192.695 242.625 194.626 242.282 196.525C242.054 197.802 241.809 199.062 241.566 200.289C238.006 218.522 233.339 231.959 222.581 242.745C221.895 243.416 221.21 244.136 220.508 244.823C219.088 246.215 217.667 247.622 216.149 249.046C209.18 242.909 204.789 233.89 204.789 223.858C204.789 205.33 219.773 190.306 238.25 190.306C239.964 190.306 241.645 190.436 243.278 190.682Z" fill="url(#paint5_linear)"/>
  </g>
  </g>
  </g>
  </g>
  </g>
  <path d="M174.062 215.897C172.824 216.126 171.355 216.342 170.503 216.342C169.651 216.342 168.184 216.126 166.945 215.897C165.708 215.664 164.01 215.242 161.008 215.897C158.008 216.548 149.796 221.781 149.796 221.781C151.6 221.777 170.503 221.781 170.503 221.781C170.503 221.781 189.406 221.777 191.212 221.781C191.212 221.781 183 216.548 179.998 215.897C178.81 215.636 177.826 215.546 176.993 215.546C175.725 215.546 174.809 215.756 174.062 215.897Z" fill="url(#paint6_linear)"/>
  <path d="M170.503 221.781H149.796C149.796 221.781 156.689 229.646 170.503 229.502C184.317 229.646 191.212 221.781 191.212 221.781H170.503Z" fill="url(#paint7_linear)"/>
  <path d="M151.655 97.4154L37.5422 118.627C27.2426 120.542 20.454 130.46 22.3637 140.771L25.8078 159.38C25.8241 159.462 25.8389 159.513 25.8389 159.513C30.5741 180.935 35.9442 203.26 39.7637 213.964C40.0559 214.751 40.3186 215.535 40.5961 216.288C41.3633 218.399 42.1305 220.463 42.8813 222.458C42.9466 222.671 43.0282 222.867 43.1245 223.08C43.6158 224.389 44.1218 225.651 44.5936 226.91C51.3365 243.9 58.3715 256.059 70.7604 264.635C71.3464 265.045 71.9503 265.454 72.5886 265.879C74.7252 267.352 76.994 268.874 79.3298 270.397C80.1623 270.937 80.9947 271.46 81.8271 272.033C83.7189 273.228 85.6287 274.423 87.5564 275.57C96.1731 280.757 105.087 285.307 112.367 287.043C113.167 287.222 113.966 287.369 114.717 287.5H114.734C115.027 287.565 115.305 287.615 115.582 287.647C117.295 287.842 118.88 287.86 120.349 287.665C124.168 287.074 126.257 286.731 127.402 286.518L127.71 286.469C128.853 286.256 130.942 285.814 134.713 284.981C135.774 284.75 136.867 284.357 137.977 283.85C139.267 283.245 140.571 282.493 141.894 281.575C142.223 281.331 142.58 281.068 142.939 280.822C143.086 280.691 143.249 280.56 143.413 280.447H143.429C151.313 274.439 159.832 263.802 167.048 253.768C167.211 253.539 167.358 253.326 167.521 253.113C167.537 253.097 167.568 253.064 167.568 253.033C168.809 251.362 169.952 249.725 171.094 248.089C171.665 247.287 172.206 246.452 172.761 245.668C181.361 233.097 183.517 219.037 183.695 200.463C183.713 199.201 183.73 197.926 183.713 196.615C183.713 194.685 183.695 192.736 183.63 190.69C183.63 190.412 183.615 190.119 183.615 189.839C183.615 188.988 183.599 188.104 183.583 187.22C183.305 175.831 180.318 152.948 177.119 131.164C177.119 131.164 177.054 130.689 176.923 129.855L173.952 113.733C173.871 113.373 173.789 113.013 173.706 112.637H173.74C172.047 103.483 164.082 97.093 155.134 97.093C153.986 97.093 152.824 97.1977 151.655 97.4154ZM120.233 168.382C120.233 168.382 132.313 135.337 160.974 160.804C160.974 160.804 153.009 169.808 134.029 169.809C129.948 169.809 125.363 169.394 120.233 168.382ZM46.7498 180.428C66.4839 147.514 87.8845 175.403 87.8845 175.403C76.5598 181.584 67.2804 183.325 60.4216 183.327C51.5698 183.327 46.7498 180.428 46.7498 180.428Z" fill="url(#paint8_linear)"/>
  <g opacity="0.220001">
  <g opacity="0.220001">
  <g opacity="0.220001">
  <g opacity="0.220001">
  <g opacity="0.220001">
  <path opacity="0.220001" d="M223.364 168.025C223.364 168.528 223.769 168.935 224.272 168.935C224.773 168.935 225.178 168.528 225.178 168.025C225.178 167.524 224.773 167.117 224.272 167.117C223.769 167.117 223.364 167.524 223.364 168.025Z" fill="url(#paint9_linear)"/>
  </g>
  </g>
  </g>
  </g>
  <g opacity="0.220001">
  <g opacity="0.220001">
  <g opacity="0.220001">
  <g opacity="0.220001">
  <path opacity="0.220001" d="M189.291 175.199C189.291 175.7 189.697 176.107 190.198 176.107C190.699 176.107 191.106 175.7 191.106 175.199C191.106 174.695 190.699 174.289 190.198 174.289C189.697 174.289 189.291 174.695 189.291 175.199Z" fill="url(#paint10_linear)"/>
  </g>
  </g>
  </g>
  </g>
  <g opacity="0.220001">
  <g opacity="0.220001">
  <g opacity="0.220001">
  <g opacity="0.220001">
  <path opacity="0.220001" d="M217.663 179.25C217.663 179.752 218.067 180.158 218.569 180.158C219.07 180.158 219.475 179.752 219.475 179.25C219.475 178.749 219.07 178.34 218.569 178.34C218.067 178.34 217.663 178.749 217.663 179.25Z" fill="url(#paint11_linear)"/>
  </g>
  </g>
  </g>
  </g>
  <g opacity="0.220001">
  <g opacity="0.220001">
  <g opacity="0.220001">
  <g opacity="0.220001">
  <path opacity="0.220001" d="M232.395 173.381C232.395 173.881 232.802 174.289 233.303 174.289C233.804 174.289 234.209 173.881 234.209 173.381C234.209 172.878 233.804 172.471 233.303 172.471C232.802 172.471 232.395 172.878 232.395 173.381Z" fill="url(#paint12_linear)"/>
  </g>
  </g>
  </g>
  </g>
  <g opacity="0.220001">
  <g opacity="0.220001">
  <g opacity="0.220001">
  <g opacity="0.220001">
  <path opacity="0.220001" d="M192.695 168.935C192.695 169.438 193.102 169.844 193.603 169.844C194.102 169.844 194.509 169.438 194.509 168.935C194.509 168.433 194.102 168.025 193.603 168.025C193.102 168.025 192.695 168.433 192.695 168.935Z" fill="url(#paint13_linear)"/>
  </g>
  </g>
  </g>
  </g>
  <g opacity="0.220001">
  <g opacity="0.220001">
  <g opacity="0.220001">
  <g opacity="0.220001">
  <path opacity="0.220001" d="M204.508 175.199C204.508 175.7 204.915 176.107 205.416 176.107C205.917 176.107 206.323 175.7 206.323 175.199C206.323 174.695 205.917 174.289 205.416 174.289C204.915 174.289 204.508 174.695 204.508 175.199Z" fill="url(#paint14_linear)"/>
  </g>
  </g>
  </g>
  </g>
  <g opacity="0.220001">
  <g opacity="0.220001">
  <g opacity="0.220001">
  <g opacity="0.220001">
  <path opacity="0.220001" d="M231.49 160.151C231.49 160.654 231.896 161.06 232.395 161.06C232.897 161.06 233.303 160.654 233.303 160.151C233.303 159.65 232.897 159.243 232.395 159.243C231.896 159.243 231.49 159.65 231.49 160.151Z" fill="url(#paint15_linear)"/>
  </g>
  </g>
  </g>
  </g>
  </g>
  <path d="M44.1528 193.608C43.7937 194.672 43.6142 195.999 43.6811 197.536C43.7774 199.877 43.7284 203.248 43.6142 207.342C43.3024 220.317 42.4389 240.614 43.6811 258.961C44.4793 270.794 50.9251 289.256 57.5864 306.032C44.8384 272.578 64.246 265.378 64.246 265.378C64.246 265.378 66.2358 264.264 69.3893 262.529C67.9186 259.665 66.1068 249.534 64.246 239.894C62.3689 230.157 64.8663 207.7 58.5168 197.536C55.3779 192.504 51.6254 190.062 48.6775 190.063C46.6111 190.063 44.9396 191.261 44.1528 193.608Z" fill="url(#paint16_linear)"/>
  <path d="M153.923 237.979C149.728 238.257 144.749 238.617 138.906 238.748C117.556 239.255 115.581 240.745 107.893 242.987C100.205 245.213 64.2459 265.378 64.2459 265.378C64.2459 265.378 43.9895 272.889 58.4514 308.225L63.3972 320.32C65.8783 303.773 69.5198 288.505 78.6098 282.3C78.6098 282.3 79.6872 281.531 81.5317 280.287C83.3924 279.043 86.0188 277.325 89.1054 275.426L90.0195 274.624L90.0847 274.821C100.794 268.356 116.446 260.221 125.684 261.776C132.524 260.825 140.489 260.63 148.569 260.139C160.972 259.403 174.373 251.694 172.251 243.233C171.6 240.581 170.182 239.108 167.895 238.355C166.298 237.813 164.279 237.619 161.795 237.619C159.557 237.62 156.941 237.777 153.923 237.979Z" fill="url(#paint17_linear)"/>
  <path d="M90.0848 274.821L90.0195 274.624L89.1055 275.426C86.0189 277.325 83.3925 279.043 81.5317 280.287C79.6873 281.531 78.6099 282.3 78.6099 282.3C69.5198 288.505 65.8783 303.774 63.3973 320.32L64.6377 323.332L75.7698 311.728C78.6426 308.749 81.6296 305.901 84.7636 303.219L90.0195 298.698C90.0195 298.698 112.512 282.155 122.779 275.819C122.877 275.754 122.975 275.688 123.073 275.639C133.079 269.469 135.233 268.634 140.146 272.578C145.092 276.556 168.923 295.723 171.713 297.456C172.433 297.899 173.02 298.652 173.33 299.567C175.828 297.112 174.883 294.183 173.183 292.04C172.725 291.449 172.222 290.942 171.713 290.5C170.817 289.731 167.666 287.554 163.356 284.657C153.596 278.127 137.909 268.045 128.949 262.889C127.986 262.333 126.891 261.973 125.685 261.776C124.904 261.645 124.08 261.583 123.215 261.583C113.838 261.583 99.8898 268.902 90.0848 274.821Z" fill="url(#paint18_linear)"/>
  <path d="M123.073 275.639C122.975 275.688 122.877 275.753 122.779 275.819C112.512 282.155 90.0195 298.698 90.0195 298.698L84.7669 303.219C81.6346 305.909 78.6344 308.749 75.7747 311.731L64.6377 323.332L69.2571 334.658C69.4693 335.114 69.6488 335.574 69.8283 335.998C70.5628 337.735 71.1815 339.24 71.6712 340.517C71.7218 340.632 71.7708 340.746 71.8197 340.861C72.2441 341.974 72.5706 342.872 72.7501 343.529C74.9211 351.057 40.9862 394.871 32.1883 406.052C45.5239 418.409 63.0055 431.697 84.5514 442.352L84.5351 442.548L85.6613 443.104C88.7643 431.844 96.418 404.151 98.9643 395.706C102.18 385.017 102.426 383.284 107.388 380.043C112.347 376.802 132.197 362.874 126.746 337.506C121.277 312.135 122.028 310.386 124.02 304.674C125.995 298.945 129.471 291.989 135.429 297.21C141.387 302.431 155.521 312.381 165.446 308.896C172.824 306.31 174.246 302.204 173.33 299.567C173.02 298.652 172.433 297.899 171.713 297.456C168.923 295.723 145.092 276.555 140.146 272.578C138.165 270.987 136.634 270.174 134.853 270.174C132.22 270.176 129.044 271.956 123.073 275.639Z" fill="url(#paint19_linear)"/>
  <g opacity="0.320007">
  <g opacity="0.320007">
  <g opacity="0.320007">
  <g opacity="0.320007">
  <g opacity="0.320007">
  <path opacity="0.320007" d="M165.446 308.896C155.522 312.382 141.387 302.431 135.429 297.21C129.471 291.989 125.995 298.945 124.02 304.674C122.028 310.386 121.277 312.137 126.745 337.506C132.197 362.874 112.349 376.802 107.387 380.043C102.425 383.284 102.18 385.019 98.9643 395.706C96.4179 404.151 88.7626 431.844 85.6613 443.104L84.535 442.548V442.352C62.9891 431.697 45.5239 418.407 32.172 406.05C40.9862 394.855 74.9047 351.057 72.7338 343.512C72.5216 342.792 72.1624 341.777 71.6727 340.517C71.1667 339.257 70.5465 337.735 69.8283 336C69.763 335.869 69.714 335.722 69.6488 335.591L64.6377 323.332L72.2212 314.923C74.6712 312.204 77.2926 309.643 80.0675 307.258L90.0195 298.7C90.0195 298.7 112.512 282.153 122.779 275.819C122.877 275.753 122.975 275.688 123.073 275.639C133.079 269.469 135.233 268.634 140.146 272.578C143.199 275.033 153.449 283.266 161.496 289.633C166.491 293.577 170.637 296.785 171.714 297.456C171.959 297.62 172.204 297.8 172.416 298.029C172.808 298.454 173.134 298.978 173.33 299.567C174.244 302.202 172.824 306.31 165.446 308.896Z" fill="url(#paint20_linear)"/>
  </g>
  </g>
  </g>
  </g>
  </g>
  <path d="M156.259 6.81675C126.445 12.6237 102.526 36.2706 97.2733 67.6065C84.7799 69.3185 83.9361 70.9551 79.0115 78.5641C73.8373 86.5822 78.0714 105.034 78.0714 105.034L79.1176 110.9L95.5595 107.843C95.5986 105.445 97.3892 101.311 97.3892 101.311C101.217 95.3336 106.344 93.9326 121.406 93.2632C140.421 97.6757 160.475 100.126 178.474 91.1502C182.59 89.0961 186.116 86.4398 189.33 83.4463C196.683 79.844 201.407 75.9896 205.164 73.5313C213.538 68.0648 219.615 67.1466 227.149 73.9077C234.779 80.7507 238.677 88.106 243.147 106.496C245.633 116.728 246.673 121.877 247.636 132.336C247.636 132.336 249.853 131.566 253.563 131.241C255.267 124.524 257.893 109.056 258.546 100.839C259.64 86.9095 265.869 32.3343 239.703 13.0214C227.365 3.92148 211.313 -1.24572e-05 194.824 -1.24572e-05C181.697 -1.24572e-05 168.295 2.48444 156.259 6.81675ZM140.745 13.8987C113.554 29.6649 99.534 66.9044 99.3839 67.3086C103.763 42.9188 119.622 23.4488 140.745 13.8987ZM130.707 92.944C135.486 92.8081 140.982 92.6756 147.366 92.4841C162.053 92.0405 172.94 89.7524 181.255 86.8244C171.775 92.6592 161.157 94.7885 150.144 94.7902C143.749 94.7902 137.223 94.0717 130.707 92.944Z" fill="url(#paint21_linear)"/>
  <defs>
  <linearGradient id="paint0_linear" x1="172.025" y1="395.576" x2="170.053" y2="224.442" gradientUnits="userSpaceOnUse">
  <stop stop-color="#EABDB8"/>
  <stop offset="0.172455" stop-color="#EABDB8"/>
  <stop offset="0.758255" stop-color="#D39B97"/>
  <stop offset="1" stop-color="#D39B97"/>
  </linearGradient>
  <linearGradient id="paint1_linear" x1="174.194" y1="327.708" x2="164.285" y2="490.056" gradientUnits="userSpaceOnUse">
  <stop stop-color="#1A1160"/>
  <stop offset="0.148346" stop-color="#1A1160"/>
  <stop offset="0.754684" stop-color="#0D0A42"/>
  <stop offset="1" stop-color="#0D0A42"/>
  </linearGradient>
  <linearGradient id="paint2_linear" x1="281.06" y1="167.111" x2="224.726" y2="152.286" gradientUnits="userSpaceOnUse">
  <stop stop-color="#EABDB8"/>
  <stop offset="0.172455" stop-color="#EABDB8"/>
  <stop offset="0.758255" stop-color="#D39B97"/>
  <stop offset="1" stop-color="#D39B97"/>
  </linearGradient>
  <linearGradient id="paint3_linear" x1="212.654" y1="142.214" x2="197.192" y2="169.312" gradientUnits="userSpaceOnUse">
  <stop stop-color="#EABDB8"/>
  <stop offset="0.172455" stop-color="#EABDB8"/>
  <stop offset="0.758255" stop-color="#D39B97"/>
  <stop offset="1" stop-color="#D39B97"/>
  </linearGradient>
  <linearGradient id="paint4_linear" x1="175.451" y1="245.342" x2="165.69" y2="318.351" gradientUnits="userSpaceOnUse">
  <stop stop-color="#EABDB8"/>
  <stop offset="0.172455" stop-color="#EABDB8"/>
  <stop offset="0.758255" stop-color="#D39B97"/>
  <stop offset="1" stop-color="#D39B97"/>
  </linearGradient>
  <linearGradient id="paint5_linear" x1="190.958" y1="196.611" x2="269.067" y2="243.223" gradientUnits="userSpaceOnUse">
  <stop stop-color="#EABDB8"/>
  <stop offset="0.172455" stop-color="#EABDB8"/>
  <stop offset="0.758255" stop-color="#D39B97"/>
  <stop offset="1" stop-color="#D39B97"/>
  </linearGradient>
  <linearGradient id="paint6_linear" x1="170.131" y1="214.818" x2="170.886" y2="228.863" gradientUnits="userSpaceOnUse">
  <stop stop-color="#DDAEAB"/>
  <stop offset="0.0969086" stop-color="#DDAEAB"/>
  <stop offset="0.758072" stop-color="#CC9A9A"/>
  <stop offset="1" stop-color="#CC9A9A"/>
  </linearGradient>
  <linearGradient id="paint7_linear" x1="170.451" y1="221.009" x2="171.66" y2="238.645" gradientUnits="userSpaceOnUse">
  <stop stop-color="#DDAEAB"/>
  <stop offset="0.0969086" stop-color="#DDAEAB"/>
  <stop offset="0.758072" stop-color="#CC9A9A"/>
  <stop offset="1" stop-color="#CC9A9A"/>
  </linearGradient>
  <linearGradient id="paint8_linear" x1="121.956" y1="131.408" x2="64.0729" y2="271.601" gradientUnits="userSpaceOnUse">
  <stop stop-color="#1A1160"/>
  <stop offset="0.148346" stop-color="#1A1160"/>
  <stop offset="0.754684" stop-color="#0D0A42"/>
  <stop offset="1" stop-color="#0D0A42"/>
  </linearGradient>
  <linearGradient id="paint9_linear" x1="101.277" y1="-251.721" x2="111.075" y2="-218.462" gradientUnits="userSpaceOnUse">
  <stop stop-color="#EABDB8"/>
  <stop offset="0.172455" stop-color="#EABDB8"/>
  <stop offset="0.758255" stop-color="#D39B97"/>
  <stop offset="1" stop-color="#D39B97"/>
  </linearGradient>
  <linearGradient id="paint10_linear" x1="67.9734" y1="-241.924" x2="77.7721" y2="-208.665" gradientUnits="userSpaceOnUse">
  <stop stop-color="#EABDB8"/>
  <stop offset="0.172455" stop-color="#EABDB8"/>
  <stop offset="0.758255" stop-color="#D39B97"/>
  <stop offset="1" stop-color="#D39B97"/>
  </linearGradient>
  <linearGradient id="paint11_linear" x1="92.9928" y1="-249.286" x2="102.791" y2="-216.027" gradientUnits="userSpaceOnUse">
  <stop stop-color="#EABDB8"/>
  <stop offset="0.172455" stop-color="#EABDB8"/>
  <stop offset="0.758255" stop-color="#D39B97"/>
  <stop offset="1" stop-color="#D39B97"/>
  </linearGradient>
  <linearGradient id="paint12_linear" x1="108.142" y1="-253.752" x2="117.941" y2="-220.493" gradientUnits="userSpaceOnUse">
  <stop stop-color="#EABDB8"/>
  <stop offset="0.172455" stop-color="#EABDB8"/>
  <stop offset="0.758255" stop-color="#D39B97"/>
  <stop offset="1" stop-color="#D39B97"/>
  </linearGradient>
  <linearGradient id="paint13_linear" x1="72.7989" y1="-243.342" x2="82.5976" y2="-210.083" gradientUnits="userSpaceOnUse">
  <stop stop-color="#EABDB8"/>
  <stop offset="0.172455" stop-color="#EABDB8"/>
  <stop offset="0.758255" stop-color="#D39B97"/>
  <stop offset="1" stop-color="#D39B97"/>
  </linearGradient>
  <linearGradient id="paint14_linear" x1="81.9826" y1="-246.051" x2="91.7813" y2="-212.792" gradientUnits="userSpaceOnUse">
  <stop stop-color="#EABDB8"/>
  <stop offset="0.172455" stop-color="#EABDB8"/>
  <stop offset="0.758255" stop-color="#D39B97"/>
  <stop offset="1" stop-color="#D39B97"/>
  </linearGradient>
  <linearGradient id="paint15_linear" x1="110.875" y1="-254.558" x2="120.673" y2="-221.299" gradientUnits="userSpaceOnUse">
  <stop stop-color="#EABDB8"/>
  <stop offset="0.172455" stop-color="#EABDB8"/>
  <stop offset="0.758255" stop-color="#D39B97"/>
  <stop offset="1" stop-color="#D39B97"/>
  </linearGradient>
  <linearGradient id="paint16_linear" x1="32.0582" y1="243.789" x2="67.9456" y2="250.906" gradientUnits="userSpaceOnUse">
  <stop stop-color="#EABDB8"/>
  <stop offset="0.172455" stop-color="#EABDB8"/>
  <stop offset="0.758255" stop-color="#D39B97"/>
  <stop offset="1" stop-color="#D39B97"/>
  </linearGradient>
  <linearGradient id="paint17_linear" x1="53.2452" y1="278.97" x2="172.476" y2="278.97" gradientUnits="userSpaceOnUse">
  <stop stop-color="#EABDB8"/>
  <stop offset="0.172455" stop-color="#EABDB8"/>
  <stop offset="0.758255" stop-color="#D39B97"/>
  <stop offset="1" stop-color="#D39B97"/>
  </linearGradient>
  <linearGradient id="paint18_linear" x1="72.0956" y1="292.457" x2="183.554" y2="292.457" gradientUnits="userSpaceOnUse">
  <stop stop-color="#EABDB8"/>
  <stop offset="0.172455" stop-color="#EABDB8"/>
  <stop offset="0.758255" stop-color="#D39B97"/>
  <stop offset="1" stop-color="#D39B97"/>
  </linearGradient>
  <linearGradient id="paint19_linear" x1="119.928" y1="310.682" x2="41.0962" y2="501.937" gradientUnits="userSpaceOnUse">
  <stop stop-color="#EABDB8"/>
  <stop offset="0.172455" stop-color="#EABDB8"/>
  <stop offset="0.758255" stop-color="#D39B97"/>
  <stop offset="1" stop-color="#D39B97"/>
  </linearGradient>
  <linearGradient id="paint20_linear" x1="118.413" y1="349.781" x2="186.328" y2="304.089" gradientUnits="userSpaceOnUse">
  <stop stop-color="#EABDB8"/>
  <stop offset="0.172455" stop-color="#EABDB8"/>
  <stop offset="0.827627" stop-color="#D39B97"/>
  <stop offset="1" stop-color="#D39B97"/>
  </linearGradient>
  <linearGradient id="paint21_linear" x1="146.127" y1="70.0053" x2="362.709" y2="58.7944" gradientUnits="userSpaceOnUse">
  <stop stop-color="#353CE1"/>
  <stop offset="0.144592" stop-color="#353CE1"/>
  <stop offset="0.754135" stop-color="#2732C9"/>
  <stop offset="1" stop-color="#2732C9"/>
  </linearGradient>
  </defs>
  </svg>  